# Blender v2.80 (sub 75) OBJ File: 'untitled.blend'
# www.blender.org
o Cube
v -1.000000 1.000000 1.000000
v -1.000000 -1.000000 1.000000
v -1.000000 1.000000 -1.000000
v -1.000000 -1.000000 -1.000000
v 1.000000 1.000000 1.000000
v 1.000000 -1.000000 1.000000
v 1.000000 1.000000 -1.000000
v 1.000000 -1.000000 -1.000000
vt 1.000977 0.333333
vt 0.750489 0.333333
vt 0.750489 0.666667
vt 1.000977 0.666667
vt 0.750489 0.333333
vt 0.500000 0.333333
vt 0.500000 0.666667
vt 0.750489 0.666667
vt 0.500000 0.333333
vt 0.249511 0.333333
vt 0.249511 0.666667
vt 0.500000 0.666667
vt 0.249511 0.333333
vt -0.000977 0.333333
vt -0.000977 0.666667
vt 0.249511 0.666667
vt 0.500000 0.000000
vt 0.249511 0.000000
vt 0.249511 0.333333
vt 0.249511 0.666667
vt 0.249511 1.000000
vt 0.500000 1.000000
vn 0.0000 0.0000 1.0000
vn 0.0000 0.0000 -1.0000
vn -1.0000 0.0000 0.0000
vn 1.0000 0.0000 0.0000
vn 0.0000 1.0000 0.0000
vn 0.0000 -1.0000 0.0000
s off
f 4/1/1 8/2/1 7/3/1 3/4/1
f 6/5/2 2/6/2 1/7/2 5/8/2
f 8/9/3 6/10/3 5/11/3 7/12/3
f 2/13/4 4/14/4 3/15/4 1/16/4
f 6/17/5 8/18/5 4/19/5 2/6/5
f 1/7/6 3/20/6 7/21/6 5/22/6
